<svg xmlns="http://www.w3.org/2000/svg" width="39" height="39" viewBox="0 0 39 39" fill="none">
  <circle cx="19.0419" cy="19.0419" r="19.0419" fill="#2E2D2D"/>
  <path d="M26.8704 15.2334H17.561C16.2756 15.2334 15.2336 16.2754 15.2336 17.5607V26.8701C15.2336 28.1555 16.2756 29.1975 17.561 29.1975H26.8704C28.1557 29.1975 29.1977 28.1555 29.1977 26.8701V17.5607C29.1977 16.2754 28.1557 15.2334 26.8704 15.2334Z" stroke="white" stroke-linecap="round" stroke-linejoin="round"/>
  <path d="M24.1198 14.8105V12.4831C24.1198 11.8659 23.8746 11.2739 23.4382 10.8374C23.0017 10.401 22.4097 10.1558 21.7925 10.1558H12.4831C11.8659 10.1558 11.2739 10.401 10.8374 10.8374C10.401 11.2739 10.1558 11.8659 10.1558 12.4831V21.7925C10.1558 22.4097 10.401 23.0017 10.8374 23.4382C11.2739 23.8746 11.8659 24.1198 12.4831 24.1198H14.8105" stroke="white" stroke-linecap="round" stroke-linejoin="round"/>
</svg>