<svg width="403" height="431" viewBox="0 0 403 431" fill="none" xmlns="http://www.w3.org/2000/svg">
<g clip-path="url(#clip0_411_8669)">
<path opacity="0.68" d="M60.5657 405.641L30.9771 381.413V49.5867L60.5657 25.3589H342.434L372.026 49.5867V381.413L342.434 405.641H60.5657Z" fill="black"/>
<path d="M403.004 39.0832L355.267 0H303.884L294.417 7.75061H107.275L97.8469 0H47.7367L0.00012207 39.0832V126.088L11.879 135.811V225.968L0.00012207 235.693V274.647L4.15489 278.049V297.009L0.00012207 300.411V391.923L47.7367 431.003H97.8469L107.275 423.252H294.417L303.884 431.003H355.267L403.004 391.923V300.411L398.849 297.009V278.049L403.004 274.647V235.693L391.125 225.968V135.811L403.004 126.088V39.0832ZM386.917 134.387V227.394L398.796 237.12V273.221L394.641 276.622V298.439L398.796 301.84V332.682L396.184 334.818L393.849 336.73V385.78L347.771 423.499H307.912L298.278 415.611H103.306L94.134 423.499H55.2399L9.1547 385.768V336.727L6.81962 334.815L4.20753 332.679V301.837L8.3623 298.436V276.619L4.20753 273.218V237.12L16.0864 227.394V134.387L4.20753 124.67V98.3323L6.81962 96.1966V47.1381L9.1547 45.2263L55.2399 7.49229H101.024L105.526 11.1953H296.16L300.683 7.49229H347.771L393.856 45.2263L396.191 47.1381V96.188L398.803 98.3237V124.67L386.917 134.387Z" fill="#00CACA"/>
<path d="M396.237 137.545V224.234L400.896 228.049V133.729L396.237 137.545Z" fill="#EB00FF"/>
<path d="M6.76341 224.234V137.545L2.1037 133.729V228.049L6.76341 224.234Z" fill="#EB00FF"/>
<path d="M109.61 428.104L106.09 430.983H295.609L292.093 428.104H109.61Z" fill="#EB00FF"/>
<path d="M290.925 2.89917L294.438 0.0170898H104.922L108.439 2.89917H290.925Z" fill="#EB00FF"/>
</g>
<defs>
<clipPath id="clip0_411_8669">
<rect width="403" height="431" fill="white"/>
</clipPath>
</defs>
</svg>
