<svg width="403" height="637" viewBox="0 0 403 637" fill="none" xmlns="http://www.w3.org/2000/svg">
<g clip-path="url(#clip0_411_8556)">
<path opacity="0.68" d="M60.5657 599.521L30.9771 563.713V73.287L60.5657 37.4792H342.434L372.026 73.287V563.713L342.434 599.521H60.5657Z" fill="black"/>
<path d="M403.003 57.7633L355.267 0H303.884L294.417 11.4551H107.275L97.8468 0H47.7366L0 57.7633V186.353L11.8789 200.723V333.971L0 348.345V405.917L4.15477 410.945V438.967L0 443.995V579.245L47.7366 637.004H97.8468L107.275 625.549H294.417L303.884 637.004H355.267L403.003 579.245V443.995L398.849 438.967V410.945L403.003 405.917V348.345L391.124 333.971V200.723L403.003 186.353V57.7633ZM386.917 198.618V336.079L398.796 350.453V403.809L394.641 408.836V441.08L398.796 446.107V491.69L396.184 494.847L393.849 497.672V570.166L347.771 625.914H307.912L298.277 614.255H103.306L94.1338 625.914H55.2397L9.15458 570.149V497.668L6.8195 494.842L4.20741 491.686V446.103L8.36218 441.076V408.832L4.20741 403.804V350.453L16.0863 336.079V198.618L4.20741 184.257V145.331L6.8195 142.175V69.6681L9.15458 66.8425L55.2397 11.0733H101.023L105.525 16.5462H296.16L300.683 11.0733H347.771L393.856 66.8425L396.191 69.6681V142.162L398.803 145.318V184.257L386.917 198.618Z" fill="#00CACA"/>
<path d="M396.237 203.285V331.408L400.896 337.047V197.647L396.237 203.285Z" fill="#EB00FF"/>
<path d="M6.76347 331.408V203.285L2.10376 197.647V337.047L6.76347 331.408Z" fill="#EB00FF"/>
<path d="M109.61 632.719L106.09 636.975H295.609L292.093 632.719H109.61Z" fill="#EB00FF"/>
<path d="M290.925 4.28498L294.438 0.0253906H104.922L108.439 4.28498H290.925Z" fill="#EB00FF"/>
</g>
<defs>
<clipPath id="clip0_411_8556">
<rect width="403" height="637" fill="white"/>
</clipPath>
</defs>
</svg>
