<svg xmlns="http://www.w3.org/2000/svg" width="104" height="95" viewBox="0 0 104 95" fill="none">
  <g opacity="0.51">
    <path d="M42.9102 2C62.607 2 102.001 6.54546 102.001 47.4546C102.001 88.3637 62.607 92.9092 42.9102 92.9092" fill="black"/>
    <path d="M42.9102 2C62.607 2 102.001 6.54546 102.001 47.4546C102.001 88.3637 62.607 92.9092 42.9102 92.9092" stroke="#4F340C" stroke-width="3"/>
    <path d="M45.1819 92.9092C21.3332 92.9092 2.00005 72.5585 2.00005 47.4546C2.00005 22.3507 21.3332 2 45.1819 2C69.0306 2 88.3638 22.3507 88.3638 47.4546C88.3638 72.5585 69.0306 92.9092 45.1819 92.9092Z" fill="black" stroke="#4F340C" stroke-width="3" stroke-linecap="round" stroke-linejoin="round"/>
    <path d="M56.5462 32.9091C53.6971 30.6258 50.1557 29.2727 46.318 29.2727C36.9045 29.2727 29.2734 37.413 29.2734 47.4545C29.2734 57.4959 36.9045 65.6364 46.318 65.6364C50.1557 65.6364 53.6971 64.2832 56.5462 62" fill="black"/>
    <path d="M56.5462 32.9091C53.6971 30.6258 50.1557 29.2727 46.318 29.2727C36.9045 29.2727 29.2734 37.413 29.2734 47.4545C29.2734 57.4959 36.9045 65.6364 46.318 65.6364C50.1557 65.6364 53.6971 64.2832 56.5462 62" stroke="#393939" stroke-width="8" stroke-linecap="round" stroke-linejoin="round"/>
  </g>
</svg>