<svg xmlns="http://www.w3.org/2000/svg" width="90" height="98" viewBox="0 0 90 98" fill="none">
  <path d="M34.4853 39L26 54.505L58.6463 98H68L57.1651 41.3906L34.4853 39Z" fill="#09080A"/>
  <path d="M1 49L14.8283 75.168L55 96L24.6807 55.2563L1 49Z" fill="#09080A"/>
  <path d="M73 28.1808L63.7438 18L60 39.5645C61.1352 45.7182 68.1899 83.9769 69.2994 90C69.6362 84.3951 72.6408 34.1638 73 28.1808Z" fill="#09080A"/>
  <path d="M33 37.2129L18.2354 1L0 46.5103L24.4668 53L33 37.2129Z" fill="#09080A"/>
  <path d="M10 87.4874L21.8389 98H54L13.8526 78L10 87.4874Z" fill="#09080A"/>
  <path d="M71 95L90 62.1524L85.7094 47L73.0985 60.9199C72.891 64.2794 71.2025 91.722 71 95Z" fill="#09080A"/>
  <path d="M74 57L83 47L74.5046 48.7368L74 57Z" fill="#09080A"/>
  <path d="M57.9949 39C59.1709 32.4074 58.7794 34.6259 62 16.6471L20 0L35.0058 36.5539L57.9949 39Z" fill="#09080A"/>
</svg>