<svg width="301" height="296" viewBox="0 0 301 296" fill="none" xmlns="http://www.w3.org/2000/svg">
<g clip-path="url(#clip0_433_7894)">
<path d="M301 152.593H298V16.6904H218.483L206.045 2.19709H93.8143L81.377 16.6904H3V56.1789H0V14.4933H80.3657L92.8029 0H207.057L219.494 14.4933H241.367H301V152.593Z" fill="#00E0F7"/>
<path d="M301 296H222.142L206.062 283.595H102.938L86.8576 296H8V104H10.8447V293.806H85.6752L101.763 281.401H207.237L223.325 293.806H298.155V209.85H301V296Z" fill="#00E0F7"/>
<path opacity="0.3" d="M206 2H92.9505L80.2906 16.7545H2.5L10.5 295H86.5L101.422 282.5H207L223.5 295H298.5V16.7545H218.5L206 2Z" fill="#0A5F85"/>
<path d="M248.941 25.873H212.41L199.972 11.3797H99.8879L87.4507 25.873H50.9189V23.6759H86.434L98.8766 9.18262H200.984L213.426 23.6759H248.941V25.873Z" fill="#00E0F7"/>
<path d="M294.737 124.305L298.955 128.516V152.582H294.737V124.305Z" fill="#00E0F7"/>
<path d="M293.64 225.994L298.96 221.782V209.712H293.64V225.994Z" fill="#00E0F7"/>
<path d="M9 132L3 127.837V104H9V132Z" fill="#00E0F7"/>
<path d="M10 39L3 43.2595V56H10V39Z" fill="#00E0F7"/>
<path d="M298.912 204.695H293V207.45H298.912V204.695Z" fill="#00E0F7"/>
<path d="M298.912 199.742H293V202.497H298.912V199.742Z" fill="#00E0F7"/>
<path d="M298.912 194.789H293V197.545H298.912V194.789Z" fill="#00E0F7"/>
<path d="M298.912 189.831H293V192.586H298.912V189.831Z" fill="#00E0F7"/>
<path d="M298.912 184.878H293V187.634H298.912V184.878Z" fill="#00E0F7"/>
<path d="M298.912 179.925H293V182.681H298.912V179.925Z" fill="#00E0F7"/>
<path d="M298.912 174.972H293V177.728H298.912V174.972Z" fill="#00E0F7"/>
<path d="M298.912 170.014H293V172.77H298.912V170.014Z" fill="#00E0F7"/>
<path d="M298.912 165.061H293V167.817H298.912V165.061Z" fill="#00E0F7"/>
<path d="M298.912 160.108H293V162.864H298.912V160.108Z" fill="#00E0F7"/>
<path d="M298.912 155.155H293V157.911H298.912V155.155Z" fill="#00E0F7"/>
<path d="M3 101H11V98.2745H3V101ZM3 96.092H11V93.3612H3V96.092ZM3 91.184H11V88.4532H3V91.184ZM3 86.2761H11V83.5453H3V86.2761ZM3 81.3628H11V78.6372H3V81.3628ZM3 76.4548H11V73.7239H3V76.4548ZM3 71.5468H11V68.816H3V71.5468ZM3 66.6388H11V63.908H3V66.6388ZM3 59V61.7308H11V59H3Z" fill="#00E0F7"/>
<path d="M114.977 289.017H184.883L191.731 295.984H108.129L114.977 289.017Z" fill="#00E0F7"/>
<path d="M98.8868 253.369L109.065 243.205H190.794L200.972 253.369H298.5V251.236H205.437L192.995 238.811H106.865L94.4219 251.236H10.5V253.369H98.8868Z" fill="#00E0F7"/>
<rect x="23.5" y="35.5" width="258" height="193" rx="15.5" fill="#FF0000" fill-opacity="0.14" stroke="#FF0000"/>
</g>
<defs>
<clipPath id="clip0_433_7894">
<rect width="301" height="296" fill="white"/>
</clipPath>
</defs>
</svg>
