<svg xmlns="http://www.w3.org/2000/svg" width="30" height="28" viewBox="0 0 30 28" fill="none">
  <path d="M12.7457 2C17.9196 2 28.2674 3.19397 28.2674 13.9397C28.2674 24.6855 17.9196 25.8794 12.7457 25.8794" fill="#FAFF00"/>
  <path d="M12.7457 2C17.9196 2 28.2674 3.19397 28.2674 13.9397C28.2674 24.6855 17.9196 25.8794 12.7457 25.8794" stroke="#FF9900" stroke-width="3"/>
  <path d="M13.3427 25.8794C7.07832 25.8794 2 20.5339 2 13.9397C2 7.3456 7.07832 2 13.3427 2C19.6072 2 24.6855 7.3456 24.6855 13.9397C24.6855 20.5339 19.6072 25.8794 13.3427 25.8794Z" fill="#FAFF00" stroke="#FF9900" stroke-width="3" stroke-linecap="round" stroke-linejoin="round"/>
  <path d="M16.3279 10.119C15.5796 9.51923 14.6493 9.16382 13.6413 9.16382C11.1686 9.16382 9.16411 11.3021 9.16411 13.9397C9.16411 16.5773 11.1686 18.7156 13.6413 18.7156C14.6493 18.7156 15.5796 18.3602 16.3279 17.7604" stroke="black" stroke-width="3" stroke-linecap="round" stroke-linejoin="round"/>
</svg>